{
  "asset": {
    "generator": "glTF-Transform v4.4.2",
    "version": "2.0"
  },
  "accessors": [
    {
      "type": "SCALAR",
      "componentType": 5123,
      "count": 2190,
      "bufferView": 0,
      "byteOffset": 0
    },
    {
      "type": "SCALAR",
      "componentType": 5123,
      "count": 10632,
      "bufferView": 0,
      "byteOffset": 4380
    },
    {
      "type": "VEC3",
      "componentType": 5120,
      "count": 716,
      "normalized": true,
      "bufferView": 1,
      "byteOffset": 0
    },
    {
      "type": "VEC3",
      "componentType": 5122,
      "count": 716,
      "max": [
        23474,
        32767,
        132
      ],
      "min": [
        -23474,
        -32767,
        -132
      ],
      "normalized": true,
      "bufferView": 1,
      "byteOffset": 4
    },
    {
      "type": "VEC2",
      "componentType": 5123,
      "count": 716,
      "normalized": true,
      "bufferView": 1,
      "byteOffset": 12
    },
    {
      "type": "VEC3",
      "componentType": 5120,
      "count": 2133,
      "normalized": true,
      "bufferView": 2,
      "byteOffset": 0
    },
    {
      "type": "VEC3",
      "componentType": 5122,
      "count": 2133,
      "max": [
        15137,
        32767,
        9969
      ],
      "min": [
        -15137,
        -32767,
        -9969
      ],
      "normalized": true,
      "bufferView": 2,
      "byteOffset": 4
    }
  ],
  "bufferViews": [
    {
      "buffer": 0,
      "byteOffset": 0,
      "byteLength": 25644,
      "target": 34963
    },
    {
      "buffer": 0,
      "byteOffset": 25644,
      "byteLength": 11456,
      "byteStride": 16,
      "target": 34962
    },
    {
      "buffer": 0,
      "byteOffset": 37100,
      "byteLength": 25596,
      "byteStride": 12,
      "target": 34962
    }
  ],
  "samplers": [
    {
      "magFilter": 9729,
      "minFilter": 9987,
      "wrapS": 10497,
      "wrapT": 10497
    }
  ],
  "textures": [
    {
      "source": 0,
      "sampler": 0
    }
  ],
  "images": [
    {
      "mimeType": "image/png",
      "uri": "baseColor.png"
    }
  ],
  "buffers": [
    {
      "uri": "card.bin",
      "byteLength": 62696
    }
  ],
  "materials": [
    {
      "name": "base",
      "extras": {
        "associations": {
          "materials": 0
        }
      },
      "doubleSided": true,
      "pbrMetallicRoughness": {
        "roughnessFactor": 0.5,
        "metallicFactor": 0,
        "baseColorTexture": {
          "index": 0
        }
      }
    },
    {
      "name": "metal",
      "extras": {
        "associations": {
          "materials": 1
        }
      },
      "doubleSided": true,
      "pbrMetallicRoughness": {
        "baseColorFactor": [
          0.03638001158833504,
          0.03638001158833504,
          0.03638001158833504,
          1
        ],
        "roughnessFactor": 0.5
      }
    }
  ],
  "meshes": [
    {
      "primitives": [
        {
          "attributes": {
            "NORMAL": 2,
            "POSITION": 3,
            "TEXCOORD_0": 4
          },
          "mode": 4,
          "material": 0,
          "indices": 0
        }
      ]
    },
    {
      "primitives": [
        {
          "attributes": {
            "NORMAL": 5,
            "POSITION": 6
          },
          "mode": 4,
          "material": 1,
          "indices": 1
        }
      ]
    }
  ],
  "nodes": [
    {
      "name": "card",
      "extras": {
        "name": "card",
        "associations": {
          "meshes": 0,
          "primitives": 0,
          "nodes": 0
        },
        "variantData": {}
      },
      "translation": [
        -0.17412595450878143,
        0.49144794419407845,
        0.44020940497284755
      ],
      "scale": [
        0.5000000596046448,
        0.5000000596046448,
        0.5000000596046448
      ],
      "mesh": 0
    },
    {
      "name": "clip",
      "extras": {
        "name": "clip",
        "associations": {
          "meshes": 1,
          "primitives": 0,
          "nodes": 1
        },
        "variantData": {}
      },
      "translation": [
        -0.17452369630336761,
        1.0494112558662891,
        0.437230022624135
      ],
      "scale": [
        0.14850163459777832,
        0.14850163459777832,
        0.14850163459777832
      ],
      "mesh": 1
    }
  ],
  "scenes": [
    {
      "name": "AuxScene",
      "nodes": [
        0,
        1
      ]
    }
  ],
  "scene": 0,
  "extensionsUsed": [
    "KHR_mesh_quantization"
  ],
  "extensionsRequired": [
    "KHR_mesh_quantization"
  ]
}